# xmcd
#
# Track frame offsets: 
#        150
#        16612
#        33637
#        50550
#        78725
#        102687
#        121362
#        137900
#        158852
#        175085
#        196412
#        214362
#
# Disc length: 3005 seconds
#
# Revision: 4
# Processed by: cddbd v1.5.2PL0 Copyright (c) Steve Scherf et al.
# Submitted via: ExactAudioCopy v0.99pb5
#
DISCID=ad0bbb0c
DTITLE=Walker, Joe Louis - Silvertone blues
DYEAR=1999
DGENRE=Blues
TTITLE0=Runnin' from the devil
TTITLE1=Kenny's barrelhouse
TTITLE2=Change my ways
TTITLE3=Do the walkin'
TTITLE4=Trouble on wheels
TTITLE5=Letting go
TTITLE6=Talk to me
TTITLE7=Silvertone blues
TTITLE8=Born in Mississippi
TTITLE9=Crying won't help you
TTITLE10=Ir's you baby
TTITLE11=Bad luck blues
EXTD=
EXTT0=
EXTT1=
EXTT2=
EXTT3=
EXTT4=
EXTT5=
EXTT6=
EXTT7=
EXTT8=
EXTT9=
EXTT10=
EXTT11=
PLAYORDER=
